<svg width="32" height="32" viewBox="0 0 32 32" fill="none" xmlns="http://www.w3.org/2000/svg">
<path d="M21.0625 24.9573V10.5983C19.9234 10.5983 19 7.84318 19 4.44446H4.5625C4.5625 7.84318 3.6391 10.5983 2.5 10.5983V24.9573C3.6391 24.9573 4.5625 27.7124 4.5625 31.1111H19C19 27.7124 19.9234 24.9573 21.0625 24.9573Z" fill="#EFF2FA"/>
<path d="M31 0.888916H1C0.725 0.888916 0.5 1.28892 0.5 1.7778V30.2222C0.5 30.7111 0.725 31.1111 1 31.1111H31C31.275 31.1111 31.5 30.7111 31.5 30.2222V1.7778C31.5 1.28892 31.275 0.888916 31 0.888916ZM2.5 22.2222V9.7778C4.15688 9.7778 5.5 7.39003 5.5 4.44447H12.4029C10.7246 6.97936 9.625 11.2092 9.625 16C9.625 20.7908 10.7246 25.0207 12.4029 27.5556H5.5C5.5 24.61 4.15688 22.2222 2.5 22.2222ZM29.5 22.2222C27.8431 22.2222 26.5 24.61 26.5 27.5556H19.7221C21.4004 25.0207 22.5 20.7908 22.5 16C22.5 11.2092 21.4004 6.97936 19.7221 4.44447H26.5C26.5 7.39003 27.8431 9.7778 29.5 9.7778V22.2222Z" fill="#B9E678"/>
<path d="M16.0625 28C19.1001 28 21.5625 22.6274 21.5625 16C21.5625 9.37258 19.1001 4 16.0625 4C13.0249 4 10.5625 9.37258 10.5625 16C10.5625 22.6274 13.0249 28 16.0625 28Z" fill="#D7DEED"/>
<path d="M30.2888 2.82477H1.71118C1.40743 2.82477 1.16162 3.27999 1.16162 3.84254V28.2685C1.16162 28.8311 1.40743 29.2863 1.71118 29.2863H30.2887C30.5925 29.2863 30.8383 28.8311 30.8383 28.2685V3.84254C30.8384 3.27999 30.5926 2.82477 30.2888 2.82477ZM29.7392 7.78477C28.9677 7.41588 28.3592 6.28899 28.1601 4.86021H29.7392V7.78477ZM3.83993 4.86021C3.64068 6.28899 3.03225 7.41588 2.26075 7.78477V4.86021H3.83993ZM2.26075 24.3264C3.03225 24.6952 3.64075 25.8222 3.83993 27.2509H2.26075V24.3264ZM4.962 27.2509C4.72962 24.6977 3.63943 22.6789 2.26081 22.2485V9.86266C3.63943 9.43244 4.72962 7.41343 4.962 4.86032H12.4894C10.6377 7.20577 9.40525 11.3472 9.40525 16.0557C9.40525 20.7641 10.6377 24.9054 12.4894 27.251H4.962V27.2509ZM16 4.86021C19.0301 4.86021 21.4957 9.88243 21.4957 16.0555C21.4957 22.2288 19.0302 27.2509 16 27.2509C12.9698 27.2509 10.5043 22.2288 10.5043 16.0555C10.5043 9.88243 12.9699 4.86021 16 4.86021ZM22.5948 16.0555C22.5948 11.3471 21.3623 7.20577 19.5107 4.86021H27.0381C27.2704 7.41343 28.3606 9.43232 29.7392 9.86255V22.2484C28.3606 22.6788 27.2704 24.6977 27.0381 27.2508H19.5107C21.3623 24.9053 22.5948 20.764 22.5948 16.0555ZM28.1601 27.2509C28.3593 25.8222 28.9677 24.6952 29.7392 24.3264V27.2509H28.1601Z" fill="#00CDFD"/>
<path d="M8 18.6666C8.82843 18.6666 9.5 17.4727 9.5 16C9.5 14.5272 8.82843 13.3333 8 13.3333C7.17157 13.3333 6.5 14.5272 6.5 16C6.5 17.4727 7.17157 18.6666 8 18.6666Z" fill="#9BDC6E"/>
<path d="M24 18.6666C24.8284 18.6666 25.5 17.4727 25.5 16C25.5 14.5272 24.8284 13.3333 24 13.3333C23.1716 13.3333 22.5 14.5272 22.5 16C22.5 17.4727 23.1716 18.6666 24 18.6666Z" fill="#9BDC6E"/>
<path d="M31 0H1C0.448625 0 0 0.797556 0 1.77778V30.2222C0 31.2024 0.448625 32 1 32H31C31.5514 32 32 31.2024 32 30.2222V1.77778C32 0.797556 31.5514 0 31 0ZM31 30.2222H1V1.77778H31V30.2222Z" fill="#00CDFD"/>
<path d="M2.5 23.1111C3.8785 23.1111 5 25.1049 5 27.5555C5 28.0464 5.22387 28.4444 5.5 28.4444H26.5C26.7761 28.4444 27 28.0464 27 27.5555C27 25.1049 28.1215 23.1111 29.5 23.1111C29.7761 23.1111 30 22.7131 30 22.2222V9.77776C30 9.28688 29.7761 8.88888 29.5 8.88888C28.1215 8.88888 27 6.8951 27 4.44443C27 3.95354 26.7761 3.55554 26.5 3.55554H5.5C5.22387 3.55554 5 3.95354 5 4.44443C5 6.8951 3.8785 8.88888 2.5 8.88888C2.22387 8.88888 2 9.28688 2 9.77776V22.2222C2 22.7131 2.22387 23.1111 2.5 23.1111ZM3 10.6034C4.53056 10.2124 5.7445 8.05443 5.96438 5.33332H26.0356C26.2555 8.05432 27.4694 10.2124 29 10.6034V21.3967C27.4694 21.7877 26.2555 23.9457 26.0356 26.6668H5.96438C5.7445 23.9458 4.53056 21.7877 3 21.3967V10.6034Z" fill="#00CDFD"/>
<path d="M8 19.5556C9.10281 19.5556 10 17.9606 10 16C10 15.5091 9.77613 15.1111 9.5 15.1111C9.22387 15.1111 9 15.5091 9 16C9 16.9802 8.55137 17.7778 8 17.7778C7.44863 17.7778 7 16.9802 7 16C7 15.0198 7.44863 14.2222 8 14.2222C8.27613 14.2222 8.5 13.8242 8.5 13.3333C8.5 12.8425 8.27613 12.4445 8 12.4445C6.89719 12.4445 6 14.0395 6 16C6 17.9606 6.89719 19.5556 8 19.5556Z" fill="#00CDFD"/>
<path d="M24 19.5556C25.1028 19.5556 26 17.9606 26 16C26 15.5091 25.7761 15.1111 25.5 15.1111C25.2239 15.1111 25 15.5091 25 16C25 16.9802 24.5514 17.7778 24 17.7778C23.4486 17.7778 23 16.9802 23 16C23 15.0198 23.4486 14.2222 24 14.2222C24.2761 14.2222 24.5 13.8242 24.5 13.3333C24.5 12.8425 24.2761 12.4445 24 12.4445C22.8972 12.4445 22 14.0395 22 16C22 17.9606 22.8972 19.5556 24 19.5556Z" fill="#00CDFD"/>
<path d="M16 22.2222C14.8972 22.2222 14 21.0259 14 19.5556C14 19.0647 13.7761 18.6667 13.5 18.6667C13.2239 18.6667 13 19.0647 13 19.5556C13 21.7537 14.0831 23.5833 15.5 23.9371V24.8889C15.5 25.3798 15.7239 25.7778 16 25.7778C16.2761 25.7778 16.5 25.3798 16.5 24.8889V23.9371C17.9169 23.5833 19 21.7538 19 19.5556C19 17.1049 17.6542 15.1111 16 15.1111C14.8972 15.1111 14 13.9148 14 12.4445C14 10.9741 14.8972 9.77778 16 9.77778C17.1028 9.77778 18 10.9741 18 12.4445C18 12.9353 18.2239 13.3333 18.5 13.3333C18.7761 13.3333 19 12.9353 19 12.4445C19 10.2463 17.9169 8.41678 16.5 8.0629V7.11112C16.5 6.62023 16.2761 6.22223 16 6.22223C15.7239 6.22223 15.5 6.62023 15.5 7.11112V8.0629C14.0831 8.41678 13 10.2462 13 12.4445C13 14.8951 14.3458 16.8889 16 16.8889C17.1028 16.8889 18 18.0852 18 19.5556C18 21.0259 17.1028 22.2222 16 22.2222Z" fill="#00CDFD"/>
</svg>
