<svg width="32" height="32" viewBox="0 0 32 32" fill="none" xmlns="http://www.w3.org/2000/svg">
<g clip-path="url(#clip0_203_293)">
<path d="M21.6061 7.01739C21.5305 6.94114 21.4365 6.88599 21.3351 6.85399L15.2246 4.93539C12.7811 4.16809 11.1913 5.50661 10.7631 5.93622C10.5132 6.18609 10.3219 6.44957 10.2238 6.67902L7.50186 13.0816C7.34595 13.4479 7.39905 13.9361 7.64347 14.4229C7.99342 15.118 8.62388 15.6191 9.37756 15.7995C10.2211 16.0017 11.096 15.7273 11.7809 15.0431C11.96 14.864 12.1125 14.6666 12.2024 14.4991L13.1174 12.8018C13.2679 12.5206 13.4864 12.2292 13.7165 11.9991C14.5015 11.2134 14.8746 11.5729 15.0333 11.7254C16.4024 13.0469 23.5805 20.2556 23.5805 20.2556C23.8358 20.5109 23.7827 20.995 23.4634 21.3136C23.1448 21.6315 22.66 21.686 22.4054 21.4321L20.3887 19.4161C20.1287 19.1553 19.7093 19.1553 19.4492 19.4161C19.1891 19.6741 19.1891 20.0956 19.4492 20.355L21.4658 22.3723C21.7204 22.6263 21.6673 23.1103 21.3487 23.4283C21.0301 23.7476 20.5446 23.8007 20.2914 23.5467L18.2741 21.5308C18.014 21.2707 17.5932 21.2707 17.3345 21.5308C17.0744 21.7888 17.0744 22.2103 17.3345 22.4703L19.3511 24.487C19.6058 24.7416 19.5506 25.2257 19.2327 25.5443C18.9147 25.8623 18.4306 25.9167 18.1753 25.6614L16.1587 23.6455C15.9 23.3861 15.4785 23.3861 15.2191 23.6455C14.9604 23.9049 14.9604 24.3263 15.2191 24.5843L17.2358 26.6017C17.4911 26.857 17.4366 27.341 17.1187 27.6597C16.7987 27.9783 16.3146 28.0321 16.0607 27.7775L13.6056 25.3203C13.9562 24.7934 13.8609 24.0288 13.3407 23.5066C12.7579 22.9245 11.8613 22.8707 11.3425 23.3908C11.8613 22.8714 11.8102 21.9761 11.226 21.3926C10.6419 20.8098 9.74726 20.756 9.22846 21.2748C9.74726 20.756 9.69483 19.8614 9.11 19.2786C8.5272 18.6944 7.63258 18.6413 7.11242 19.1601C7.63258 18.6413 7.5788 17.7467 6.99532 17.1619C6.44929 16.6158 5.63569 16.5416 5.10668 16.9576L1.13127 12.9822C0.871876 12.7221 0.450439 12.7221 0.19104 12.9822C-0.0676778 13.2409 -0.0676778 13.6624 0.19104 13.9224L4.15623 17.8869L2.98043 19.0628C2.46163 19.5809 2.51405 20.4755 3.09889 21.0603C3.68169 21.6431 4.57631 21.6969 5.09578 21.1774C4.57631 21.6969 4.62941 22.5908 5.21357 23.175C5.79637 23.7571 6.69167 23.8123 7.21114 23.2928C6.69167 23.8123 6.74409 24.7062 7.32825 25.2897C7.91241 25.8738 8.80702 25.9269 9.32582 25.4082C8.80702 25.9263 8.85945 26.8202 9.44361 27.405C10.0271 27.9878 10.921 28.0416 11.4412 27.5221L12.683 26.281L15.1211 28.7184C15.8993 29.4966 17.2154 29.4421 18.0582 28.6006C18.4688 28.1901 18.688 27.6658 18.7186 27.147C19.2374 27.1164 19.7624 26.8965 20.1722 26.4852C20.5834 26.0747 20.804 25.5504 20.8354 25.0316C21.3535 25.001 21.8764 24.7818 22.2889 24.3706C22.6995 23.9593 22.9194 23.4358 22.9494 22.9163C23.4688 22.8863 23.9931 22.6671 24.4043 22.2545C25.2458 21.413 25.2976 20.0949 24.5214 19.3181L23.4933 18.2893L27.7145 14.0688C27.9739 13.8101 27.9739 13.3887 27.7145 13.1293L21.6061 7.01739Z" fill="#00CDFD"/>
<path d="M31.6112 8.50297L26.232 3.12368C25.7132 2.6042 24.871 2.6042 24.3515 3.12368L22.471 5.00279C21.9522 5.52159 21.9522 6.36378 22.471 6.88258L27.851 12.2632C28.3705 12.782 29.2127 12.782 29.7315 12.2632L31.6112 10.3834C32.1294 9.86396 32.1294 9.02177 31.6112 8.50297ZM28.7878 11.2427C28.186 11.2427 27.6971 10.7545 27.6971 10.152C27.6971 9.54942 28.186 9.06057 28.7878 9.06057C29.3904 9.06057 29.8792 9.54874 29.8792 10.152C29.8785 10.7538 29.3904 11.2427 28.7878 11.2427Z" fill="#00CDFD"/>
</g>
<defs>
<clipPath id="clip0_203_293">
<rect width="32" height="32" fill="white"/>
</clipPath>
</defs>
</svg>
